<svg 
 xmlns="http://www.w3.org/2000/svg"
 xmlns:xlink="http://www.w3.org/1999/xlink"
 width="65.5px" height="65.5px">
<path fill-rule="evenodd"  stroke="rgb(17, 17, 17)" stroke-width="5px" stroke-linecap="butt" stroke-linejoin="miter" fill="none"
 d="M21.13,59.869 C17.352,59.869 14.869,59.869 14.869,59.869 C8.242,59.869 2.869,54.496 2.869,47.868 C2.869,47.868 2.869,45.401 2.869,41.756 M2.869,20.756 C2.869,17.236 2.869,14.869 2.869,14.869 C2.869,8.241 8.242,2.870 14.869,2.870 C14.869,2.870 17.239,2.870 20.763,2.870 M41.763,2.870 C45.403,2.870 47.869,2.870 47.869,2.870 C54.496,2.870 59.868,8.241 59.868,14.869 C59.868,14.869 59.868,17.292 59.868,20.880 M59.868,41.882 C59.868,45.456 59.868,47.868 59.868,47.868 C59.868,54.496 54.496,59.869 47.869,59.869 C47.869,59.869 45.515,59.869 42.12,59.869 "/>
<path fill-rule="evenodd"  fill="rgb(52, 201, 219)"
 d="M7.499,27.499 L56.499,27.499 C58.709,27.499 60.499,29.290 60.499,31.499 C60.499,33.709 58.709,35.499 56.499,35.499 L7.499,35.499 C5.290,35.499 3.499,33.709 3.499,31.499 C3.499,29.290 5.290,27.499 7.499,27.499 Z"/>
</svg>