<svg xmlns="http://www.w3.org/2000/svg" viewBox="0 0 277.74 123.99"><defs><style>.cls-1,.cls-2{fill:#fff;}.cls-1,.cls-2,.cls-3,.cls-4{stroke:#000;stroke-width:3px;}.cls-1,.cls-2,.cls-3{stroke-miterlimit:10;}.cls-2,.cls-4{stroke-linecap:round;}.cls-3,.cls-4{fill:none;}.cls-4{stroke-linejoin:round;}</style></defs><g id="Layer_4" data-name="Layer 4"><circle class="cls-1" cx="241.74" cy="97.88" r="24.61"/><circle cx="241.74" cy="97.88" r="4.89"/><path class="cls-2" d="M618.57,561.57a15.2,15.2,0,0,1-7.33-7.17" transform="translate(-382.92 -449.91)"/></g><g id="Layer_1" data-name="Layer 1"><path class="cls-1" d="M384.42,505.25v32.48a10.05,10.05,0,0,0,10.06,10.06H646.64a12.51,12.51,0,0,0,12.52-12.52V520a17.44,17.44,0,0,0-8.34-15c-12.93-7.74-55.87-16.59-65.52-19-3.64-.9-7.28-1.8-10.27-4.06L543.14,458c-5-3.59-13.92-6.55-20-6.59l-64.5,0h-.15c-9.75,0-18.33,0-35.62,15.63,0,0-15.75,13.42-28.91,24.26C386.24,497.64,384.42,499.54,384.42,505.25Z" transform="translate(-382.92 -449.91)"/><path class="cls-3" d="M474.91,491.64H426.29c-4.27,0,.68-4.73,1.83-5.87l16.61-13.92c4.27-3.36,7.55-5.57,12.39-5.57h12.79c4.27,0,6.66,1.16,8.56,5.57l5,14.22C486,492.54,483.6,491.7,474.91,491.64Z" transform="translate(-382.92 -449.91)"/><polyline class="cls-4" points="116.1 14.63 126.81 40.31 173.59 40.31"/><path class="cls-3" d="M1.5,58.62H20.32a5.81,5.81,0,0,1,5.81,5.81v0a5.81,5.81,0,0,1-5.81,5.81H1.5a0,0,0,0,1,0,0V58.62a0,0,0,0,1,0,0Z"/><path class="cls-3" d="M256.21,59.6H270.9a3.52,3.52,0,0,1,3.52,3.52v1a7.58,7.58,0,0,1-7.58,7.58H256.21a3.52,3.52,0,0,1-3.52-3.52v-5a3.52,3.52,0,0,1,3.52-3.52Z"/><path class="cls-3" d="M601.85,509.51h10.63a7.58,7.58,0,0,1,7.58,7.58v1a3.52,3.52,0,0,1-3.52,3.52H601.85a3.52,3.52,0,0,1-3.52-3.52v-5A3.52,3.52,0,0,1,601.85,509.51Z" transform="translate(835.46 581.18) rotate(180)"/><line class="cls-4" x1="130.04" y1="63.6" x2="147.65" y2="63.6"/></g><g id="Layer_2" data-name="Layer 2"><circle class="cls-1" cx="50.73" cy="97.88" r="24.61"/><path class="cls-2" d="M427.35,561.57A15.2,15.2,0,0,1,420,554.4" transform="translate(-382.92 -449.91)"/><circle cx="50.73" cy="97.88" r="4.89"/></g><g id="Layer_3" data-name="Layer 3"><circle class="cls-1" cx="183.34" cy="97.88" r="24.61"/><circle cx="183.34" cy="97.88" r="4.89"/><path class="cls-2" d="M560.17,561.57a15.2,15.2,0,0,1-7.33-7.17" transform="translate(-382.92 -449.91)"/></g></svg>